<svg width="425" height="170" viewBox="0 0 425 170" fill="none" xmlns="http://www.w3.org/2000/svg">
<g clip-path="url(#clip0_1219_82)">
<path d="M145.514 35.6163L133.85 72.1899H123.054L139.775 27.0236H146.599L145.514 35.6163ZM155.192 72.1899L143.497 35.6163L142.287 27.0236H149.205L165.987 72.1899H155.192ZM154.696 55.3766V63.1939H131.151V55.3766H154.696ZM178.954 46.4426V72.1899H169.276V38.6254H178.365L178.954 46.4426ZM188.974 38.3772L188.819 47.4043C188.405 47.3422 187.867 47.2905 187.206 47.2492C186.544 47.1871 185.975 47.1561 185.499 47.1561C184.259 47.1561 183.183 47.3112 182.273 47.6214C181.384 47.9109 180.64 48.3452 180.04 48.9243C179.461 49.5033 179.026 50.2272 178.737 51.0958C178.447 51.9437 178.303 52.926 178.303 54.0427L176.472 53.1431C176.472 50.9303 176.69 48.9036 177.124 47.063C177.558 45.2225 178.189 43.6301 179.016 42.2858C179.843 40.9209 180.857 39.8662 182.056 39.1217C183.256 38.3772 184.621 38.0049 186.151 38.0049C186.647 38.0049 187.154 38.036 187.671 38.098C188.188 38.1601 188.622 38.2531 188.974 38.3772ZM211.557 38.6254V45.4189H191.642V38.6254H211.557ZM196.202 30.3118H205.911V61.6739C205.911 62.6045 206.025 63.318 206.252 63.8143C206.48 64.3106 206.852 64.6622 207.369 64.869C207.886 65.0551 208.548 65.1482 209.355 65.1482C209.934 65.1482 210.43 65.1275 210.844 65.0862C211.257 65.0448 211.64 64.9931 211.991 64.9311V71.9418C211.164 72.2106 210.285 72.4174 209.355 72.5622C208.424 72.7276 207.411 72.8104 206.314 72.8104C204.226 72.8104 202.416 72.4691 200.886 71.7867C199.376 71.1042 198.218 70.0288 197.411 68.5605C196.605 67.0715 196.202 65.1379 196.202 62.7596V30.3118Z" fill="white"/>
<path d="M258.299 58.3546H259.974C259.664 61.6015 258.805 64.3003 257.399 66.4511C256.014 68.5812 254.163 70.1736 251.846 71.2283C249.551 72.283 246.893 72.8104 243.874 72.8104C241.392 72.8104 239.149 72.3347 237.143 71.3834C235.137 70.4321 233.41 69.0775 231.962 67.3197C230.535 65.5618 229.439 63.4731 228.674 61.0535C227.909 58.6131 227.526 55.9247 227.526 52.988V46.2255C227.526 43.2682 227.909 40.5797 228.674 38.1601C229.439 35.7404 230.535 33.6517 231.962 31.8938C233.41 30.136 235.137 28.7814 237.143 27.8301C239.149 26.8788 241.392 26.4031 243.874 26.4031C246.893 26.4031 249.551 26.9305 251.846 27.9852C254.163 29.0399 256.014 30.6323 257.399 32.7624C258.805 34.8925 259.664 37.5707 259.974 40.7968H258.299C257.989 38.0256 257.234 35.6991 256.034 33.8171C254.855 31.9352 253.242 30.5082 251.195 29.5362C249.168 28.5643 246.728 28.0783 243.874 28.0783C241.682 28.0783 239.686 28.5126 237.887 29.3811C236.088 30.229 234.537 31.4492 233.234 33.0416C231.952 34.634 230.959 36.5366 230.256 38.7494C229.553 40.9623 229.201 43.4336 229.201 46.1634V52.988C229.201 55.7179 229.553 58.1995 230.256 60.433C230.959 62.6665 231.952 64.5795 233.234 66.1719C234.537 67.7643 236.088 68.9948 237.887 69.8634C239.686 70.7113 241.682 71.1352 243.874 71.1352C246.666 71.1352 249.086 70.6906 251.133 69.8013C253.18 68.8914 254.804 67.4955 256.003 65.6135C257.223 63.7109 257.989 61.2913 258.299 58.3546ZM267.047 56.0591V54.7562C267.047 52.2952 267.398 50.041 268.101 47.9937C268.825 45.9463 269.828 44.1781 271.11 42.6891C272.413 41.2001 273.964 40.0523 275.764 39.2458C277.563 38.4186 279.548 38.0049 281.72 38.0049C283.912 38.0049 285.907 38.4186 287.707 39.2458C289.506 40.0523 291.057 41.2001 292.36 42.6891C293.663 44.1781 294.666 45.9463 295.369 47.9937C296.072 50.041 296.423 52.2952 296.423 54.7562V56.0591C296.423 58.5201 296.072 60.7743 295.369 62.8216C294.666 64.869 293.663 66.6372 292.36 68.1262C291.078 69.6152 289.537 70.7733 287.738 71.6005C285.938 72.4071 283.953 72.8104 281.782 72.8104C279.589 72.8104 277.594 72.4071 275.795 71.6005C273.995 70.7733 272.444 69.6152 271.141 68.1262C269.839 66.6372 268.825 64.869 268.101 62.8216C267.398 60.7743 267.047 58.5201 267.047 56.0591ZM268.722 54.7562V56.0591C268.722 58.0651 269.011 59.9781 269.59 61.798C270.19 63.5972 271.048 65.1999 272.165 66.6062C273.282 68.0125 274.647 69.1189 276.26 69.9254C277.873 70.732 279.714 71.1352 281.782 71.1352C283.829 71.1352 285.649 70.732 287.241 69.9254C288.854 69.1189 290.219 68.0125 291.336 66.6062C292.453 65.1999 293.301 63.5972 293.88 61.798C294.459 59.9781 294.748 58.0651 294.748 56.0591V54.7562C294.748 52.7916 294.459 50.9096 293.88 49.1104C293.301 47.3112 292.442 45.7085 291.305 44.3022C290.188 42.8752 288.823 41.7481 287.21 40.9209C285.597 40.0937 283.767 39.6801 281.72 39.6801C279.672 39.6801 277.842 40.0937 276.229 40.9209C274.636 41.7481 273.272 42.8752 272.134 44.3022C271.017 45.7085 270.169 47.3112 269.59 49.1104C269.011 50.9096 268.722 52.7916 268.722 54.7562ZM327.072 65.6756V24.5419H328.747V72.1899H327.072V65.6756ZM303.031 55.7179V55.0664C303.031 52.4193 303.31 50.0514 303.868 47.9626C304.447 45.8532 305.275 44.0644 306.35 42.596C307.446 41.107 308.78 39.9696 310.352 39.1837C311.924 38.3979 313.702 38.0049 315.687 38.0049C317.528 38.0049 319.162 38.2841 320.589 38.8425C322.036 39.4009 323.288 40.1867 324.342 41.2001C325.418 42.1928 326.307 43.3612 327.01 44.7055C327.713 46.0497 328.251 47.5077 328.623 49.0794V62.7596C328.354 64.0832 327.879 65.355 327.196 66.5752C326.534 67.7746 325.655 68.85 324.559 69.8013C323.484 70.732 322.202 71.4661 320.713 72.0038C319.224 72.5415 317.528 72.8104 315.625 72.8104C313.64 72.8104 311.861 72.4071 310.29 71.6005C308.739 70.7733 307.425 69.6049 306.35 68.0952C305.275 66.5855 304.447 64.7863 303.868 62.6976C303.31 60.6088 303.031 58.2823 303.031 55.7179ZM304.768 55.0664V55.7179C304.768 57.9514 304.985 60.0091 305.419 61.891C305.874 63.7729 306.547 65.4067 307.436 66.7923C308.325 68.1572 309.452 69.2223 310.817 69.9875C312.182 70.7526 313.774 71.1352 315.594 71.1352C317.952 71.1352 319.958 70.7216 321.612 69.8944C323.267 69.0672 324.59 67.9608 325.583 66.5752C326.576 65.1896 327.258 63.6592 327.63 61.9841V50.1961C327.403 49.1621 327.041 48.0454 326.545 46.8459C326.069 45.6257 325.376 44.478 324.466 43.4026C323.577 42.3065 322.409 41.4172 320.961 40.7348C319.534 40.0316 317.766 39.6801 315.656 39.6801C313.816 39.6801 312.213 40.0627 310.848 40.8278C309.483 41.593 308.346 42.6684 307.436 44.054C306.547 45.4189 305.874 47.0424 305.419 48.9243C304.985 50.7855 304.768 52.8329 304.768 55.0664ZM351.454 72.8104C349.407 72.8104 347.494 72.4071 345.716 71.6005C343.937 70.7733 342.376 69.6152 341.031 68.1262C339.687 66.6372 338.632 64.8794 337.867 62.8527C337.123 60.8053 336.751 58.5614 336.751 56.1211V54.7562C336.751 52.2952 337.112 50.0514 337.836 48.0247C338.581 45.9773 339.594 44.2091 340.876 42.7201C342.179 41.2104 343.679 40.0523 345.374 39.2458C347.07 38.4186 348.89 38.0049 350.834 38.0049C352.695 38.0049 354.401 38.3565 355.952 39.0597C357.504 39.7421 358.848 40.7141 359.985 41.9756C361.143 43.2371 362.033 44.7468 362.653 46.5047C363.273 48.2625 363.584 50.2065 363.584 52.3366V54.2909H337.836V52.6158H361.908V52.2125C361.908 49.9583 361.454 47.8903 360.544 46.0083C359.634 44.1057 358.351 42.5754 356.697 41.4172C355.043 40.2591 353.088 39.6801 350.834 39.6801C348.973 39.6801 347.277 40.073 345.747 40.8589C344.237 41.6447 342.934 42.7305 341.838 44.1161C340.742 45.481 339.894 47.0734 339.294 48.8933C338.715 50.7132 338.426 52.6675 338.426 54.7562V56.1211C338.426 58.2099 338.757 60.1642 339.418 61.9841C340.08 63.804 341 65.4067 342.179 66.7923C343.358 68.1572 344.733 69.2326 346.305 70.0185C347.897 70.7837 349.614 71.1663 351.454 71.1663C353.378 71.1663 355.167 70.8457 356.821 70.2046C358.496 69.5635 360.027 68.3434 361.412 66.5441L362.591 67.3817C361.846 68.4364 360.947 69.3774 359.892 70.2046C358.858 71.0111 357.638 71.6522 356.232 72.1279C354.846 72.5829 353.254 72.8104 351.454 72.8104Z" fill="white"/>
<path d="M152.429 118.595H162.48C162.314 121.697 161.467 124.437 159.936 126.816C158.427 129.173 156.327 131.024 153.639 132.368C150.95 133.692 147.755 134.354 144.054 134.354C141.096 134.354 138.449 133.847 136.112 132.834C133.775 131.82 131.79 130.373 130.156 128.491C128.543 126.588 127.302 124.303 126.434 121.635C125.586 118.947 125.162 115.917 125.162 112.546V109.785C125.162 106.414 125.606 103.385 126.496 100.696C127.385 98.0077 128.657 95.7122 130.311 93.8095C131.966 91.9069 133.951 90.4489 136.267 89.4356C138.584 88.4223 141.169 87.9156 144.023 87.9156C147.869 87.9156 151.116 88.6084 153.763 89.994C156.41 91.3796 158.458 93.2822 159.905 95.7018C161.374 98.1214 162.252 100.882 162.542 103.984H152.46C152.377 102.227 152.047 100.748 151.468 99.5484C150.888 98.3282 149.999 97.408 148.8 96.7875C147.6 96.1671 146.008 95.8569 144.023 95.8569C142.575 95.8569 141.303 96.1258 140.207 96.6635C139.132 97.2012 138.232 98.0387 137.508 99.1762C136.805 100.314 136.278 101.761 135.926 103.519C135.574 105.256 135.399 107.324 135.399 109.723V112.546C135.399 114.924 135.554 116.982 135.864 118.719C136.174 120.456 136.671 121.894 137.353 123.031C138.056 124.169 138.956 125.017 140.052 125.575C141.148 126.133 142.482 126.412 144.054 126.412C145.853 126.412 147.352 126.133 148.552 125.575C149.751 124.996 150.671 124.127 151.312 122.969C151.954 121.811 152.326 120.353 152.429 118.595ZM166.202 117.292V116.641C166.202 114.18 166.554 111.915 167.257 109.847C167.96 107.759 168.994 105.949 170.359 104.419C171.724 102.888 173.399 101.699 175.385 100.851C177.37 99.9827 179.645 99.5484 182.209 99.5484C184.815 99.5484 187.11 99.9827 189.096 100.851C191.102 101.699 192.787 102.888 194.152 104.419C195.517 105.949 196.551 107.759 197.254 109.847C197.957 111.915 198.309 114.18 198.309 116.641V117.292C198.309 119.733 197.957 121.997 197.254 124.086C196.551 126.154 195.517 127.964 194.152 129.515C192.787 131.045 191.112 132.234 189.127 133.082C187.142 133.93 184.856 134.354 182.271 134.354C179.707 134.354 177.422 133.93 175.416 133.082C173.41 132.234 171.724 131.045 170.359 129.515C168.994 127.964 167.96 126.154 167.257 124.086C166.554 121.997 166.202 119.733 166.202 117.292ZM175.912 116.641V117.292C175.912 118.616 176.015 119.857 176.222 121.015C176.45 122.173 176.812 123.186 177.308 124.055C177.804 124.923 178.456 125.606 179.262 126.102C180.089 126.578 181.092 126.816 182.271 126.816C183.45 126.816 184.443 126.578 185.249 126.102C186.056 125.606 186.707 124.923 187.204 124.055C187.7 123.186 188.051 122.173 188.258 121.015C188.486 119.857 188.599 118.616 188.599 117.292V116.641C188.599 115.338 188.486 114.118 188.258 112.98C188.051 111.822 187.7 110.799 187.204 109.909C186.707 109.02 186.045 108.327 185.218 107.831C184.412 107.335 183.409 107.086 182.209 107.086C181.051 107.086 180.069 107.335 179.262 107.831C178.456 108.327 177.804 109.02 177.308 109.909C176.812 110.799 176.45 111.822 176.222 112.98C176.015 114.118 175.912 115.338 175.912 116.641ZM213.602 86.0853V133.733H203.893V86.0853H213.602ZM230.788 86.0853V133.733H221.078V86.0853H230.788ZM253.588 134.354C250.92 134.354 248.532 133.93 246.422 133.082C244.313 132.234 242.524 131.066 241.056 129.577C239.608 128.067 238.502 126.33 237.737 124.365C236.971 122.4 236.589 120.301 236.589 118.068V116.889C236.589 114.387 236.94 112.081 237.643 109.971C238.347 107.862 239.37 106.032 240.715 104.481C242.079 102.909 243.755 101.699 245.74 100.851C247.725 99.9827 249.99 99.5484 252.533 99.5484C254.912 99.5484 257.032 99.9413 258.893 100.727C260.754 101.492 262.326 102.599 263.608 104.046C264.89 105.473 265.862 107.2 266.524 109.227C267.206 111.233 267.548 113.487 267.548 115.989V119.96H240.497V113.725H258.055V112.98C258.055 111.802 257.838 110.768 257.404 109.878C256.99 108.989 256.37 108.307 255.543 107.831C254.736 107.335 253.712 107.086 252.471 107.086C251.293 107.086 250.31 107.335 249.524 107.831C248.739 108.327 248.108 109.03 247.632 109.94C247.177 110.83 246.846 111.874 246.64 113.074C246.433 114.252 246.329 115.524 246.329 116.889V118.068C246.329 119.371 246.505 120.56 246.857 121.635C247.208 122.711 247.725 123.631 248.408 124.396C249.09 125.161 249.917 125.761 250.889 126.195C251.861 126.63 252.968 126.847 254.209 126.847C255.739 126.847 257.197 126.557 258.583 125.978C259.968 125.378 261.168 124.448 262.181 123.186L266.71 128.367C266.028 129.359 265.066 130.321 263.825 131.252C262.605 132.162 261.137 132.906 259.42 133.485C257.704 134.064 255.76 134.354 253.588 134.354ZM286.284 126.816C287.318 126.816 288.218 126.619 288.983 126.226C289.748 125.833 290.338 125.285 290.751 124.582C291.185 123.858 291.403 122.99 291.403 121.976H300.523C300.523 124.417 299.892 126.568 298.63 128.429C297.39 130.29 295.715 131.748 293.605 132.803C291.496 133.837 289.117 134.354 286.47 134.354C283.865 134.354 281.59 133.93 279.646 133.082C277.702 132.213 276.078 131.004 274.775 129.453C273.473 127.901 272.49 126.102 271.828 124.055C271.187 121.987 270.867 119.753 270.867 117.354V116.548C270.867 114.17 271.187 111.946 271.828 109.878C272.49 107.81 273.473 106.001 274.775 104.45C276.078 102.899 277.691 101.699 279.615 100.851C281.559 99.9827 283.834 99.5484 286.439 99.5484C289.19 99.5484 291.62 100.076 293.729 101.13C295.859 102.185 297.524 103.705 298.724 105.691C299.923 107.655 300.523 110.023 300.523 112.794H291.403C291.403 111.719 291.206 110.757 290.813 109.909C290.441 109.041 289.862 108.358 289.076 107.862C288.311 107.345 287.36 107.086 286.222 107.086C285.043 107.086 284.071 107.345 283.306 107.862C282.562 108.358 281.993 109.051 281.6 109.94C281.207 110.83 280.938 111.843 280.793 112.98C280.649 114.097 280.576 115.286 280.576 116.548V117.354C280.576 118.637 280.649 119.857 280.793 121.015C280.938 122.152 281.207 123.155 281.6 124.024C282.014 124.892 282.593 125.575 283.337 126.071C284.082 126.568 285.064 126.816 286.284 126.816ZM322.392 100.169V106.962H302.477V100.169H322.392ZM307.037 91.8552H316.747V123.217C316.747 124.148 316.86 124.861 317.088 125.358C317.315 125.854 317.688 126.206 318.205 126.412C318.722 126.599 319.383 126.692 320.19 126.692C320.769 126.692 321.265 126.671 321.679 126.63C322.093 126.588 322.475 126.537 322.827 126.475V133.485C322 133.754 321.121 133.961 320.19 134.106C319.259 134.271 318.246 134.354 317.15 134.354C315.061 134.354 313.252 134.013 311.721 133.33C310.212 132.648 309.054 131.572 308.247 130.104C307.44 128.615 307.037 126.681 307.037 124.303V91.8552ZM337.251 100.169V133.733H327.542V100.169H337.251ZM326.953 91.483C326.953 90.0767 327.449 88.9289 328.442 88.0397C329.434 87.1297 330.737 86.6747 332.35 86.6747C333.963 86.6747 335.266 87.1297 336.259 88.0397C337.272 88.9289 337.779 90.0767 337.779 91.483C337.779 92.8686 337.272 94.0163 336.259 94.9263C335.266 95.8156 333.963 96.2602 332.35 96.2602C330.737 96.2602 329.434 95.8156 328.442 94.9263C327.449 94.0163 326.953 92.8686 326.953 91.483ZM355.988 126.878L362.999 100.169H373.174L362.037 133.733H355.926L355.988 126.878ZM351.459 100.169L358.439 126.909L358.501 133.733H352.39L341.253 100.169H351.459ZM392.127 134.354C389.46 134.354 387.071 133.93 384.962 133.082C382.852 132.234 381.063 131.066 379.595 129.577C378.147 128.067 377.041 126.33 376.276 124.365C375.511 122.4 375.128 120.301 375.128 118.068V116.889C375.128 114.387 375.48 112.081 376.183 109.971C376.886 107.862 377.909 106.032 379.254 104.481C380.619 102.909 382.294 101.699 384.279 100.851C386.264 99.9827 388.529 99.5484 391.073 99.5484C393.451 99.5484 395.571 99.9413 397.432 100.727C399.293 101.492 400.865 102.599 402.147 104.046C403.429 105.473 404.401 107.2 405.063 109.227C405.746 111.233 406.087 113.487 406.087 115.989V119.96H379.037V113.725H396.594V112.98C396.594 111.802 396.377 110.768 395.943 109.878C395.529 108.989 394.909 108.307 394.082 107.831C393.275 107.335 392.251 107.086 391.011 107.086C389.832 107.086 388.85 107.335 388.064 107.831C387.278 108.327 386.647 109.03 386.171 109.94C385.716 110.83 385.386 111.874 385.179 113.074C384.972 114.252 384.869 115.524 384.869 116.889V118.068C384.869 119.371 385.044 120.56 385.396 121.635C385.747 122.711 386.264 123.631 386.947 124.396C387.629 125.161 388.457 125.761 389.429 126.195C390.401 126.63 391.507 126.847 392.748 126.847C394.278 126.847 395.736 126.557 397.122 125.978C398.507 125.378 399.707 124.448 400.72 123.186L405.249 128.367C404.567 129.359 403.605 130.321 402.364 131.252C401.144 132.162 399.676 132.906 397.959 133.485C396.243 134.064 394.299 134.354 392.127 134.354Z" fill="white"/>
<ellipse cx="64.5246" cy="80.8328" rx="44.0788" ry="43.6629" fill="#FF0000"/>
<path d="M76.8161 64.9717L59.2576 112.224H56.3425L74.884 62.8701H77.1551L76.8161 64.9717ZM93.4255 112.224L75.9009 64.9717L75.5619 62.8701H77.7991L96.3745 112.224H93.4255ZM89.0867 95.3092V97.8514H63.7659V95.3092H89.0867Z" fill="black"/>
<path d="M58.3762 95.5494L61.1218 95.5494C60.7828 99.0069 59.8563 101.922 58.3423 104.295C56.8282 106.645 54.7944 108.43 52.2409 109.65C49.7099 110.848 46.727 111.447 43.2921 111.447C40.5578 111.447 38.0721 110.927 35.8349 109.888C33.6203 108.826 31.7108 107.334 30.1063 105.413C28.5245 103.47 27.3042 101.154 26.4455 98.4646C25.5868 95.7754 25.1574 92.8038 25.1574 89.5497L25.1574 82.6348C25.1574 79.3581 25.5868 76.3865 26.4455 73.72C27.3042 71.0309 28.5245 68.7259 30.1063 66.8051C31.7108 64.8617 33.6316 63.3702 35.8688 62.3307C38.1286 61.2686 40.6482 60.7376 43.4277 60.7376C46.7948 60.7376 49.7438 61.3364 52.2748 62.5341C54.8057 63.7318 56.8282 65.517 58.3423 67.8898C59.8563 70.2399 60.7828 73.1438 61.1218 76.6012L58.3762 76.6012C58.0372 73.7313 57.2576 71.3133 56.0373 69.3473C54.8396 67.3587 53.19 65.8447 51.0884 64.8052C48.9868 63.7657 46.4332 63.2459 43.4277 63.2459C41.055 63.2459 38.9195 63.7092 37.0213 64.6357C35.1231 65.5396 33.496 66.8503 32.1401 68.5677C30.7843 70.2625 29.7335 72.2963 28.9878 74.6691C28.2646 77.0193 27.9031 79.6519 27.9031 82.567L27.9031 89.5497C27.9031 92.4197 28.2646 95.0523 28.9878 97.4477C29.7109 99.8204 30.7391 101.866 32.0724 103.583C33.4056 105.278 35.0214 106.6 36.9196 107.549C38.8178 108.475 40.942 108.939 43.2921 108.939C46.2977 108.939 48.8625 108.464 50.9867 107.515C53.1109 106.543 54.7831 105.063 56.0034 103.075C57.2463 101.086 58.0372 98.5775 58.3762 95.5494Z" fill="black"/>
<path d="M61.2313 58.2797L58.4856 58.2797C58.8246 54.8222 59.7511 51.9071 61.2652 49.5343C62.7792 47.1841 64.813 45.3989 67.3666 44.1786C69.8975 42.981 72.8804 42.3821 76.3153 42.3821C79.0496 42.3821 81.5354 42.9019 83.7725 43.9414C85.9871 45.0035 87.8966 46.4949 89.5011 48.4157C91.0829 50.3591 92.3032 52.6754 93.1619 55.3645C94.0206 58.0537 94.45 61.0253 94.45 64.2794L94.45 71.1943C94.45 74.471 94.0206 77.4426 93.1619 80.1091C92.3032 82.7982 91.0829 85.1032 89.5011 87.024C87.8966 88.9674 85.9758 90.4589 83.7386 91.4984C81.4789 92.5605 78.9592 93.0915 76.1797 93.0915C72.8126 93.0915 69.8636 92.4927 67.3327 91.295C64.8017 90.0973 62.7792 88.3121 61.2652 85.9393C59.7511 83.5892 58.8246 80.6853 58.4856 77.2279L61.2313 77.2279C61.5702 80.0978 62.3499 82.5158 63.5701 84.4818C64.7678 86.4704 66.4174 87.9844 68.519 89.0239C70.6206 90.0634 73.1742 90.5832 76.1797 90.5832C78.5525 90.5832 80.6879 90.1199 82.5862 89.1934C84.4844 88.2895 86.1114 86.9788 87.4673 85.2614C88.8231 83.5666 89.8739 81.5328 90.6197 79.16C91.3428 76.8098 91.7044 74.1772 91.7044 71.2621L91.7044 64.2794C91.7044 61.4094 91.3428 58.7768 90.6197 56.3814C89.8965 54.0087 88.8683 51.9636 87.5351 50.2461C86.2018 48.5513 84.5861 47.2293 82.6878 46.2802C80.7896 45.3537 78.6654 44.8905 76.3153 44.8905C73.3098 44.8905 70.7449 45.365 68.6207 46.3141C66.4965 47.2858 64.8243 48.766 63.604 50.7546C62.3612 52.7432 61.5702 55.2516 61.2313 58.2797Z" fill="black"/>
</g>
<defs>
<clipPath id="clip0_1219_82">
<rect width="424.086" height="169.634" fill="white"/>
</clipPath>
</defs>
</svg>
