<svg width="425" height="170" viewBox="0 0 425 170" fill="none" xmlns="http://www.w3.org/2000/svg">
<g clip-path="url(#clip0_1214_57)">
<path d="M145.709 35.9821L134.046 72.5557H123.25L139.971 27.3893H146.795L145.709 35.9821ZM155.388 72.5557L143.693 35.9821L142.483 27.3893H149.401L166.183 72.5557H155.388ZM154.892 55.7424V63.5596H131.347V55.7424H154.892ZM179.15 46.8083V72.5557H169.471V38.9911H178.56L179.15 46.8083ZM189.17 38.7429L189.014 47.77C188.601 47.7079 188.063 47.6562 187.401 47.6149C186.74 47.5528 186.171 47.5218 185.695 47.5218C184.454 47.5218 183.379 47.6769 182.469 47.9871C181.58 48.2767 180.835 48.711 180.236 49.29C179.657 49.8691 179.222 50.5929 178.933 51.4615C178.643 52.3094 178.498 53.2917 178.498 54.4085L176.668 53.5089C176.668 51.296 176.885 49.2693 177.32 47.4288C177.754 45.5882 178.385 43.9958 179.212 42.6515C180.039 41.2866 181.052 40.2319 182.252 39.4874C183.451 38.7429 184.816 38.3707 186.347 38.3707C186.843 38.3707 187.35 38.4017 187.867 38.4637C188.384 38.5258 188.818 38.6188 189.17 38.7429ZM211.753 38.9911V45.7847H191.837V38.9911H211.753ZM196.397 30.6775H206.107V62.0396C206.107 62.9702 206.221 63.6837 206.448 64.18C206.676 64.6764 207.048 65.0279 207.565 65.2347C208.082 65.4209 208.744 65.5139 209.55 65.5139C210.129 65.5139 210.626 65.4932 211.039 65.4519C211.453 65.4105 211.836 65.3588 212.187 65.2968V72.3075C211.36 72.5763 210.481 72.7832 209.55 72.9279C208.62 73.0934 207.606 73.1761 206.51 73.1761C204.422 73.1761 202.612 72.8349 201.082 72.1524C199.572 71.4699 198.414 70.3945 197.607 68.9262C196.801 67.4372 196.397 65.5036 196.397 63.1253V30.6775Z" fill="black"/>
<path d="M258.495 58.7204H260.17C259.86 61.9672 259.001 64.666 257.595 66.8168C256.209 68.9469 254.358 70.5393 252.042 71.594C249.747 72.6487 247.089 73.1761 244.07 73.1761C241.588 73.1761 239.344 72.7004 237.338 71.7491C235.332 70.7978 233.606 69.4432 232.158 67.6854C230.731 65.9275 229.635 63.8388 228.87 61.4192C228.104 58.9789 227.722 56.2904 227.722 53.3537V46.5912C227.722 43.6339 228.104 40.9454 228.87 38.5258C229.635 36.1061 230.731 34.0174 232.158 32.2596C233.606 30.5017 235.332 29.1471 237.338 28.1958C239.344 27.2445 241.588 26.7689 244.07 26.7689C247.089 26.7689 249.747 27.2962 252.042 28.3509C254.358 29.4056 256.209 30.998 257.595 33.1281C259.001 35.2582 259.86 37.9364 260.17 41.1625H258.495C258.184 38.3913 257.43 36.0648 256.23 34.1829C255.051 32.3009 253.438 30.874 251.391 29.902C249.364 28.93 246.924 28.444 244.07 28.444C241.878 28.444 239.882 28.8783 238.083 29.7469C236.284 30.5948 234.733 31.8149 233.43 33.4073C232.148 34.9997 231.155 36.9023 230.452 39.1152C229.749 41.328 229.397 43.7993 229.397 46.5292V53.3537C229.397 56.0836 229.749 58.5653 230.452 60.7988C231.155 63.0323 232.148 64.9452 233.43 66.5376C234.733 68.13 236.284 69.3605 238.083 70.2291C239.882 71.077 241.878 71.501 244.07 71.501C246.862 71.501 249.281 71.0563 251.329 70.1671C253.376 69.2571 255 67.8612 256.199 65.9792C257.419 64.0766 258.184 61.657 258.495 58.7204ZM267.242 56.4248V55.1219C267.242 52.6609 267.594 50.4068 268.297 48.3594C269.021 46.312 270.024 44.5438 271.306 43.0548C272.609 41.5658 274.16 40.418 275.959 39.6115C277.759 38.7843 279.744 38.3707 281.915 38.3707C284.107 38.3707 286.103 38.7843 287.902 39.6115C289.702 40.418 291.253 41.5658 292.555 43.0548C293.858 44.5438 294.861 46.312 295.565 48.3594C296.268 50.4068 296.619 52.6609 296.619 55.1219V56.4248C296.619 58.8858 296.268 61.14 295.565 63.1874C294.861 65.2347 293.858 67.0029 292.555 68.4919C291.273 69.9809 289.733 71.139 287.933 71.9663C286.134 72.7728 284.149 73.1761 281.977 73.1761C279.785 73.1761 277.79 72.7728 275.99 71.9663C274.191 71.139 272.64 69.9809 271.337 68.4919C270.034 67.0029 269.021 65.2347 268.297 63.1874C267.594 61.14 267.242 58.8858 267.242 56.4248ZM268.918 55.1219V56.4248C268.918 58.4308 269.207 60.3438 269.786 62.1637C270.386 63.9629 271.244 65.5656 272.361 66.9719C273.478 68.3782 274.843 69.4846 276.456 70.2911C278.069 71.0977 279.909 71.501 281.977 71.501C284.025 71.501 285.845 71.0977 287.437 70.2911C289.05 69.4846 290.415 68.3782 291.532 66.9719C292.649 65.5656 293.496 63.9629 294.076 62.1637C294.655 60.3438 294.944 58.4308 294.944 56.4248V55.1219C294.944 53.1573 294.655 51.2753 294.076 49.4761C293.496 47.6769 292.638 46.0742 291.501 44.6679C290.384 43.2409 289.019 42.1139 287.406 41.2866C285.793 40.4594 283.963 40.0458 281.915 40.0458C279.868 40.0458 278.038 40.4594 276.425 41.2866C274.832 42.1139 273.467 43.2409 272.33 44.6679C271.213 46.0742 270.365 47.6769 269.786 49.4761C269.207 51.2753 268.918 53.1573 268.918 55.1219ZM327.268 66.0413V24.9076H328.943V72.5557H327.268V66.0413ZM303.227 56.0836V55.4321C303.227 52.785 303.506 50.4171 304.064 48.3284C304.643 46.2189 305.471 44.4301 306.546 42.9618C307.642 41.4728 308.976 40.3353 310.548 39.5495C312.119 38.7636 313.898 38.3707 315.883 38.3707C317.724 38.3707 319.358 38.6499 320.784 39.2082C322.232 39.7666 323.483 40.5525 324.538 41.5658C325.613 42.5585 326.503 43.7269 327.206 45.0712C327.909 46.4154 328.447 47.8734 328.819 49.4451V63.1253C328.55 64.4489 328.074 65.7207 327.392 66.9409C326.73 68.1404 325.851 69.2158 324.755 70.1671C323.68 71.0977 322.398 71.8318 320.909 72.3695C319.42 72.9072 317.724 73.1761 315.821 73.1761C313.836 73.1761 312.057 72.7728 310.486 71.9663C308.935 71.139 307.621 69.9706 306.546 68.4609C305.471 66.9512 304.643 65.152 304.064 63.0633C303.506 60.9745 303.227 58.648 303.227 56.0836ZM304.964 55.4321V56.0836C304.964 58.3171 305.181 60.3748 305.615 62.2567C306.07 64.1387 306.742 65.7724 307.632 67.158C308.521 68.523 309.648 69.588 311.013 70.3532C312.378 71.1184 313.97 71.501 315.79 71.501C318.148 71.501 320.154 71.0873 321.808 70.2601C323.463 69.4329 324.786 68.3265 325.779 66.9409C326.772 65.5553 327.454 64.0249 327.826 62.3498V50.5619C327.599 49.5278 327.237 48.4111 326.74 47.2116C326.265 45.9915 325.572 44.8437 324.662 43.7683C323.773 42.6722 322.604 41.783 321.157 41.1005C319.73 40.3974 317.962 40.0458 315.852 40.0458C314.012 40.0458 312.409 40.4284 311.044 41.1936C309.679 41.9587 308.542 43.0341 307.632 44.4197C306.742 45.7847 306.07 47.4081 305.615 49.29C305.181 51.1513 304.964 53.1986 304.964 55.4321ZM351.65 73.1761C349.603 73.1761 347.69 72.7728 345.911 71.9663C344.133 71.139 342.571 69.9809 341.227 68.4919C339.883 67.0029 338.828 65.2451 338.063 63.2184C337.319 61.171 336.946 58.9272 336.946 56.4869V55.1219C336.946 52.6609 337.308 50.4171 338.032 48.3904C338.777 46.343 339.79 44.5748 341.072 43.0858C342.375 41.5762 343.874 40.418 345.57 39.6115C347.266 38.7843 349.086 38.3707 351.03 38.3707C352.891 38.3707 354.597 38.7222 356.148 39.4254C357.699 40.1078 359.044 41.0798 360.181 42.3413C361.339 43.6029 362.228 45.1125 362.849 46.8704C363.469 48.6282 363.779 50.5722 363.779 52.7023V54.6566H338.032V52.9815H362.104V52.5782C362.104 50.324 361.649 48.256 360.739 46.3741C359.829 44.4714 358.547 42.9411 356.893 41.783C355.238 40.6249 353.284 40.0458 351.03 40.0458C349.169 40.0458 347.473 40.4387 345.942 41.2246C344.433 42.0105 343.13 43.0962 342.034 44.4818C340.938 45.8467 340.09 47.4391 339.49 49.259C338.911 51.0789 338.621 53.0332 338.621 55.1219V56.4869C338.621 58.5756 338.952 60.5299 339.614 62.3498C340.276 64.1697 341.196 65.7724 342.375 67.158C343.554 68.523 344.929 69.5983 346.501 70.3842C348.093 71.1494 349.81 71.532 351.65 71.532C353.574 71.532 355.362 71.2114 357.017 70.5703C358.692 69.9292 360.222 68.7091 361.608 66.9099L362.787 67.7474C362.042 68.8021 361.143 69.7431 360.088 70.5703C359.054 71.3769 357.834 72.018 356.427 72.4936C355.042 72.9486 353.449 73.1761 351.65 73.1761Z" fill="black"/>
<path d="M152.625 118.961H162.676C162.51 122.063 161.662 124.803 160.132 127.181C158.622 129.539 156.523 131.39 153.835 132.734C151.146 134.058 147.951 134.72 144.249 134.72C141.292 134.72 138.645 134.213 136.308 133.2C133.971 132.186 131.986 130.739 130.352 128.857C128.739 126.954 127.498 124.669 126.629 122.001C125.782 119.313 125.358 116.283 125.358 112.912V110.151C125.358 106.78 125.802 103.75 126.692 101.062C127.581 98.3734 128.853 96.0779 130.507 94.1753C132.162 92.2727 134.147 90.8147 136.463 89.8013C138.779 88.788 141.364 88.2813 144.218 88.2813C148.065 88.2813 151.312 88.9741 153.959 90.3597C156.606 91.7453 158.653 93.6479 160.101 96.0675C161.569 98.4872 162.448 101.248 162.738 104.35H152.656C152.573 102.592 152.242 101.114 151.663 99.9141C151.084 98.694 150.195 97.7737 148.996 97.1533C147.796 96.5329 146.204 96.2226 144.218 96.2226C142.771 96.2226 141.499 96.4915 140.403 97.0292C139.327 97.5669 138.428 98.4044 137.704 99.5419C137.001 100.679 136.473 102.127 136.122 103.885C135.77 105.622 135.595 107.69 135.595 110.089V112.912C135.595 115.29 135.75 117.348 136.06 119.085C136.37 120.822 136.866 122.259 137.549 123.397C138.252 124.534 139.152 125.382 140.248 125.941C141.344 126.499 142.678 126.778 144.249 126.778C146.049 126.778 147.548 126.499 148.747 125.941C149.947 125.362 150.867 124.493 151.508 123.335C152.149 122.177 152.522 120.719 152.625 118.961ZM166.398 117.658V117.007C166.398 114.546 166.75 112.281 167.453 110.213C168.156 108.124 169.19 106.315 170.555 104.784C171.92 103.254 173.595 102.065 175.58 101.217C177.566 100.348 179.841 99.9141 182.405 99.9141C185.011 99.9141 187.306 100.348 189.292 101.217C191.298 102.065 192.983 103.254 194.348 104.784C195.713 106.315 196.747 108.124 197.45 110.213C198.153 112.281 198.505 114.546 198.505 117.007V117.658C198.505 120.098 198.153 122.363 197.45 124.452C196.747 126.52 195.713 128.329 194.348 129.88C192.983 131.411 191.308 132.6 189.323 133.448C187.337 134.296 185.052 134.72 182.467 134.72C179.903 134.72 177.617 134.296 175.611 133.448C173.605 132.6 171.92 131.411 170.555 129.88C169.19 128.329 168.156 126.52 167.453 124.452C166.75 122.363 166.398 120.098 166.398 117.658ZM176.108 117.007V117.658C176.108 118.982 176.211 120.222 176.418 121.381C176.645 122.539 177.007 123.552 177.504 124.421C178 125.289 178.651 125.972 179.458 126.468C180.285 126.944 181.288 127.181 182.467 127.181C183.646 127.181 184.638 126.944 185.445 126.468C186.252 125.972 186.903 125.289 187.399 124.421C187.896 123.552 188.247 122.539 188.454 121.381C188.682 120.222 188.795 118.982 188.795 117.658V117.007C188.795 115.704 188.682 114.484 188.454 113.346C188.247 112.188 187.896 111.164 187.399 110.275C186.903 109.386 186.241 108.693 185.414 108.197C184.607 107.7 183.604 107.452 182.405 107.452C181.247 107.452 180.265 107.7 179.458 108.197C178.651 108.693 178 109.386 177.504 110.275C177.007 111.164 176.645 112.188 176.418 113.346C176.211 114.484 176.108 115.704 176.108 117.007ZM213.798 86.4511V134.099H204.089V86.4511H213.798ZM230.984 86.4511V134.099H221.274V86.4511H230.984ZM253.784 134.72C251.116 134.72 248.728 134.296 246.618 133.448C244.509 132.6 242.72 131.431 241.252 129.942C239.804 128.433 238.698 126.695 237.932 124.731C237.167 122.766 236.785 120.667 236.785 118.434V117.255C236.785 114.752 237.136 112.447 237.839 110.337C238.542 108.228 239.566 106.397 240.91 104.846C242.275 103.275 243.95 102.065 245.936 101.217C247.921 100.348 250.186 99.9141 252.729 99.9141C255.108 99.9141 257.227 100.307 259.089 101.093C260.95 101.858 262.522 102.965 263.804 104.412C265.086 105.839 266.058 107.566 266.72 109.593C267.402 111.599 267.743 113.853 267.743 116.355V120.326H240.693V114.091H258.251V113.346C258.251 112.167 258.034 111.133 257.6 110.244C257.186 109.355 256.566 108.672 255.738 108.197C254.932 107.7 253.908 107.452 252.667 107.452C251.488 107.452 250.506 107.7 249.72 108.197C248.934 108.693 248.304 109.396 247.828 110.306C247.373 111.195 247.042 112.24 246.835 113.439C246.629 114.618 246.525 115.89 246.525 117.255V118.434C246.525 119.736 246.701 120.926 247.052 122.001C247.404 123.076 247.921 123.997 248.604 124.762C249.286 125.527 250.113 126.127 251.085 126.561C252.057 126.995 253.164 127.212 254.404 127.212C255.935 127.212 257.393 126.923 258.778 126.344C260.164 125.744 261.363 124.814 262.377 123.552L266.906 128.733C266.223 129.725 265.262 130.687 264.021 131.617C262.801 132.527 261.332 133.272 259.616 133.851C257.899 134.43 255.955 134.72 253.784 134.72ZM286.48 127.181C287.514 127.181 288.414 126.985 289.179 126.592C289.944 126.199 290.533 125.651 290.947 124.948C291.381 124.224 291.598 123.356 291.598 122.342H300.719C300.719 124.783 300.088 126.933 298.826 128.795C297.585 130.656 295.91 132.114 293.801 133.168C291.691 134.203 289.313 134.72 286.666 134.72C284.06 134.72 281.786 134.296 279.842 133.448C277.898 132.579 276.274 131.369 274.971 129.818C273.668 128.267 272.686 126.468 272.024 124.421C271.383 122.353 271.063 120.119 271.063 117.72V116.914C271.063 114.535 271.383 112.312 272.024 110.244C272.686 108.176 273.668 106.366 274.971 104.815C276.274 103.264 277.887 102.065 279.811 101.217C281.754 100.348 284.029 99.9141 286.635 99.9141C289.386 99.9141 291.816 100.441 293.925 101.496C296.055 102.551 297.72 104.071 298.919 106.056C300.119 108.021 300.719 110.389 300.719 113.16H291.598C291.598 112.085 291.402 111.123 291.009 110.275C290.637 109.407 290.058 108.724 289.272 108.228C288.507 107.711 287.555 107.452 286.418 107.452C285.239 107.452 284.267 107.711 283.502 108.228C282.757 108.724 282.189 109.417 281.796 110.306C281.403 111.195 281.134 112.209 280.989 113.346C280.845 114.463 280.772 115.652 280.772 116.914V117.72C280.772 119.002 280.845 120.222 280.989 121.381C281.134 122.518 281.403 123.521 281.796 124.39C282.209 125.258 282.789 125.941 283.533 126.437C284.278 126.933 285.26 127.181 286.48 127.181ZM322.588 100.535V107.328H302.673V100.535H322.588ZM307.233 92.221H316.942V123.583C316.942 124.514 317.056 125.227 317.284 125.723C317.511 126.22 317.883 126.571 318.4 126.778C318.917 126.964 319.579 127.057 320.386 127.057C320.965 127.057 321.461 127.037 321.875 126.995C322.288 126.954 322.671 126.902 323.023 126.84V133.851C322.195 134.12 321.316 134.327 320.386 134.471C319.455 134.637 318.442 134.72 317.346 134.72C315.257 134.72 313.447 134.378 311.917 133.696C310.407 133.013 309.249 131.938 308.443 130.47C307.636 128.981 307.233 127.047 307.233 124.669V92.221ZM337.447 100.535V134.099H327.738V100.535H337.447ZM327.148 91.8487C327.148 90.4424 327.645 89.2946 328.637 88.4054C329.63 87.4954 330.933 87.0405 332.546 87.0405C334.159 87.0405 335.462 87.4954 336.455 88.4054C337.468 89.2946 337.975 90.4424 337.975 91.8487C337.975 93.2343 337.468 94.3821 336.455 95.292C335.462 96.1813 334.159 96.6259 332.546 96.6259C330.933 96.6259 329.63 96.1813 328.637 95.292C327.645 94.3821 327.148 93.2343 327.148 91.8487ZM356.184 127.244L363.195 100.535H373.369L362.233 134.099H356.122L356.184 127.244ZM351.655 100.535L358.635 127.275L358.697 134.099H352.585L341.449 100.535H351.655ZM392.323 134.72C389.655 134.72 387.267 134.296 385.157 133.448C383.048 132.6 381.259 131.431 379.791 129.942C378.343 128.433 377.237 126.695 376.472 124.731C375.706 122.766 375.324 120.667 375.324 118.434V117.255C375.324 114.752 375.675 112.447 376.378 110.337C377.082 108.228 378.105 106.397 379.45 104.846C380.814 103.275 382.49 102.065 384.475 101.217C386.46 100.348 388.725 99.9141 391.268 99.9141C393.647 99.9141 395.767 100.307 397.628 101.093C399.489 101.858 401.061 102.965 402.343 104.412C403.625 105.839 404.597 107.566 405.259 109.593C405.941 111.599 406.283 113.853 406.283 116.355V120.326H379.232V114.091H396.79V113.346C396.79 112.167 396.573 111.133 396.139 110.244C395.725 109.355 395.105 108.672 394.278 108.197C393.471 107.7 392.447 107.452 391.206 107.452C390.028 107.452 389.045 107.7 388.259 108.197C387.474 108.693 386.843 109.396 386.367 110.306C385.912 111.195 385.581 112.24 385.375 113.439C385.168 114.618 385.064 115.89 385.064 117.255V118.434C385.064 119.736 385.24 120.926 385.592 122.001C385.943 123.076 386.46 123.997 387.143 124.762C387.825 125.527 388.652 126.127 389.624 126.561C390.596 126.995 391.703 127.212 392.944 127.212C394.474 127.212 395.932 126.923 397.318 126.344C398.703 125.744 399.903 124.814 400.916 123.552L405.445 128.733C404.763 129.725 403.801 130.687 402.56 131.617C401.34 132.527 399.872 133.272 398.155 133.851C396.439 134.43 394.495 134.72 392.323 134.72Z" fill="black"/>
<ellipse cx="64.7204" cy="81.1986" rx="44.0788" ry="43.6629" fill="#FF0000"/>
<path d="M77.0119 65.3374L59.4534 112.589H56.5383L75.0798 63.2358H77.3509L77.0119 65.3374ZM93.6213 112.589L76.0967 65.3374L75.7577 63.2358H77.9949L96.5703 112.589H93.6213ZM89.2825 95.6749V98.2172H63.9617V95.6749H89.2825Z" fill="black"/>
<path d="M58.572 95.9152L61.3176 95.9152C60.9786 99.3726 60.0521 102.288 58.5381 104.661C57.024 107.011 54.9902 108.796 52.4367 110.016C49.9057 111.214 46.9228 111.813 43.488 111.813C40.7536 111.813 38.2679 111.293 36.0307 110.253C33.8161 109.191 31.9066 107.7 30.3022 105.779C28.7203 103.836 27.5 101.519 26.6413 98.8303C25.7826 96.1411 25.3532 93.1695 25.3532 89.9155L25.3532 83.0005C25.3532 79.7239 25.7826 76.7523 26.6413 74.0857C27.5 71.3966 28.7203 69.0916 30.3021 67.1708C31.9066 65.2274 33.8274 63.7359 36.0646 62.6964C38.3244 61.6343 40.844 61.1033 43.6235 61.1033C46.9906 61.1033 49.9396 61.7021 52.4706 62.8998C55.0015 64.0975 57.024 65.8827 58.5381 68.2555C60.0521 70.6057 60.9786 73.5095 61.3176 76.9669L58.572 76.9669C58.233 74.097 57.4534 71.6791 56.2331 69.713C55.0354 67.7244 53.3858 66.2104 51.2842 65.1709C49.1826 64.1314 46.629 63.6116 43.6235 63.6116C41.2508 63.6116 39.1153 64.0749 37.2171 65.0014C35.3189 65.9053 33.6918 67.216 32.3359 68.9334C30.9801 70.6283 29.9293 72.6621 29.1836 75.0348C28.4604 77.385 28.0989 80.0176 28.0989 82.9327L28.0989 89.9155C28.0989 92.7854 28.4604 95.418 29.1836 97.8134C29.9067 100.186 30.9349 102.231 32.2682 103.949C33.6014 105.644 35.2172 106.965 37.1154 107.915C39.0136 108.841 41.1378 109.304 43.488 109.304C46.4935 109.304 49.0583 108.83 51.1825 107.881C53.3067 106.909 54.9789 105.429 56.1992 103.44C57.4421 101.452 58.233 98.9433 58.572 95.9152Z" fill="black"/>
<path d="M61.4271 58.6454L58.6814 58.6454C59.0204 55.1879 59.9469 52.2728 61.461 49.9C62.975 47.5499 65.0088 45.7646 67.5624 44.5444C70.0933 43.3467 73.0762 42.7478 76.5111 42.7478C79.2454 42.7478 81.7312 43.2676 83.9683 44.3071C86.1829 45.3692 88.0924 46.8606 89.6969 48.7815C91.2787 50.7249 92.499 53.0411 93.3577 55.7303C94.2164 58.4194 94.6458 61.391 94.6458 64.6451L94.6458 71.56C94.6458 74.8367 94.2164 77.8083 93.3577 80.4748C92.499 83.164 91.2787 85.4689 89.6969 87.3897C88.0924 89.3332 86.1716 90.8246 83.9344 91.8641C81.6747 92.9262 79.155 93.4572 76.3755 93.4572C73.0084 93.4572 70.0594 92.8584 67.5285 91.6607C64.9975 90.463 62.975 88.6778 61.461 86.3051C59.9469 83.9549 59.0204 81.0511 58.6814 77.5936L61.4271 77.5936C61.766 80.4635 62.5457 82.8815 63.7659 84.8475C64.9636 86.8361 66.6132 88.3502 68.7148 89.3896C70.8164 90.4291 73.37 90.9489 76.3755 90.9489C78.7483 90.9489 80.8837 90.4856 82.782 89.5591C84.6802 88.6552 86.3072 87.3446 87.6631 85.6271C89.0189 83.9323 90.0697 81.8985 90.8155 79.5257C91.5386 77.1756 91.9002 74.5429 91.9002 71.6278L91.9002 64.6451C91.9002 61.7752 91.5386 59.1425 90.8155 56.7472C90.0923 54.3744 89.0641 52.3293 87.7309 50.6119C86.3976 48.917 84.7819 47.5951 82.8836 46.646C80.9854 45.7195 78.8612 45.2562 76.5111 45.2562C73.5056 45.2562 70.9407 45.7308 68.8165 46.6799C66.6923 47.6516 65.0201 49.1317 63.7998 51.1203C62.557 53.1089 61.766 55.6173 61.4271 58.6454Z" fill="black"/>
</g>
<defs>
<clipPath id="clip0_1214_57">
<rect width="424.086" height="169.634" fill="white" transform="translate(0.195801 0.365723)"/>
</clipPath>
</defs>
</svg>
